<mxfile host="app.diagrams.net" modified="2024-05-23T11:38:23.369Z" agent="Mozilla/5.0 (Windows NT 10.0; Win64; x64) AppleWebKit/537.36 (KHTML, like Gecko) Chrome/121.0.0.0 Safari/537.36 Edg/121.0.0.0" etag="6K11L0gGITv7eGOUJOBE" version="23.1.2" type="github">
  <diagram name="Page-1" id="c7558073-3199-34d8-9f00-42111426c3f3">
    <mxGraphModel dx="847" dy="383" grid="1" gridSize="10" guides="1" tooltips="1" connect="1" arrows="1" fold="1" page="1" pageScale="1" pageWidth="826" pageHeight="1169" background="none" math="0" shadow="0">
      <root>
        <mxCell id="0" />
        <mxCell id="1" parent="0" />
        <mxCell id="5" value="" style="shape=process;whiteSpace=wrap;align=center;verticalAlign=middle;size=0.0475;fontStyle=1;strokeWidth=3;fillColor=#FFCCCC;movable=1;resizable=1;rotatable=1;deletable=1;editable=1;locked=0;connectable=1;" parent="1" vertex="1">
          <mxGeometry x="20" y="400" width="780" height="410" as="geometry" />
        </mxCell>
        <mxCell id="4" value="THUNDERHEAD&#xa;(Exported zip)" style="whiteSpace=wrap;align=center;verticalAlign=middle;fontStyle=1;strokeWidth=3;fillColor=#FFFFCC" parent="1" vertex="1">
          <mxGeometry x="80" y="430" width="120" height="60" as="geometry" />
        </mxCell>
        <mxCell id="37" value="" style="edgeStyle=none;noEdgeStyle=1;strokeColor=#990000;strokeWidth=2;exitX=0.995;exitY=0.374;exitDx=0;exitDy=0;exitPerimeter=0;entryX=0.421;entryY=0.133;entryDx=0;entryDy=0;entryPerimeter=0;" parent="1" target="5" edge="1">
          <mxGeometry width="100" height="100" relative="1" as="geometry">
            <mxPoint x="199.39999999999986" y="459.43999999999994" as="sourcePoint" />
            <mxPoint x="348" y="450" as="targetPoint" />
            <Array as="points" />
          </mxGeometry>
        </mxCell>
        <mxCell id="UxZgJWPgAQTNmLdTsYF8-105" value="" style="rounded=0;whiteSpace=wrap;html=1;" vertex="1" parent="1">
          <mxGeometry x="85" y="580" width="345" height="150" as="geometry" />
        </mxCell>
        <mxCell id="UxZgJWPgAQTNmLdTsYF8-96" value="&lt;p style=&quot;margin: 0px; margin-top: 4px; text-align: center; text-decoration: underline;&quot;&gt;&lt;strong&gt;API 1&lt;br&gt;&lt;/strong&gt;&lt;/p&gt;&lt;hr&gt;&lt;p style=&quot;margin: 0px; margin-left: 8px;&quot;&gt;TH ZIP file to&lt;br&gt;&amp;nbsp;MongoDB&lt;br&gt;&lt;br&gt;&lt;/p&gt;" style="verticalAlign=middle;align=center;overflow=fill;fontSize=12;fontFamily=Helvetica;html=1;rounded=1;fontStyle=1;strokeWidth=3;fillColor=#E6FFCC;movable=1;resizable=1;rotatable=1;deletable=1;editable=1;locked=0;connectable=1;" vertex="1" parent="1">
          <mxGeometry x="106" y="605" width="110" height="91" as="geometry" />
        </mxCell>
        <mxCell id="UxZgJWPgAQTNmLdTsYF8-100" value="" style="edgeStyle=none;noEdgeStyle=1;strokeColor=#990000;strokeWidth=2;entryX=-0.001;entryY=0.59;entryDx=0;entryDy=0;entryPerimeter=0;movable=1;resizable=1;rotatable=1;deletable=1;editable=1;locked=0;connectable=1;exitX=1.019;exitY=0.567;exitDx=0;exitDy=0;exitPerimeter=0;" edge="1" parent="1" source="UxZgJWPgAQTNmLdTsYF8-96" target="UxZgJWPgAQTNmLdTsYF8-97">
          <mxGeometry width="100" height="100" relative="1" as="geometry">
            <mxPoint x="217" y="700" as="sourcePoint" />
            <mxPoint x="266.9999999999999" y="700" as="targetPoint" />
          </mxGeometry>
        </mxCell>
        <mxCell id="UxZgJWPgAQTNmLdTsYF8-97" value="&lt;p style=&quot;margin: 0px; margin-top: 4px; text-align: center; text-decoration: underline;&quot;&gt;&lt;strong&gt;API 2&lt;br&gt;&lt;/strong&gt;&lt;/p&gt;&lt;hr&gt;&lt;p style=&quot;margin: 0px; margin-left: 8px;&quot;&gt;MongoDB data &lt;br&gt;to MP Touchpoint&lt;br&gt;&amp;nbsp;creation&lt;/p&gt;" style="verticalAlign=middle;align=center;overflow=fill;fontSize=12;fontFamily=Helvetica;html=1;rounded=1;fontStyle=1;strokeWidth=3;fillColor=#E6FFCC;movable=1;resizable=1;rotatable=1;deletable=1;editable=1;locked=0;connectable=1;" vertex="1" parent="1">
          <mxGeometry x="269" y="604" width="140" height="90" as="geometry" />
        </mxCell>
        <mxCell id="UxZgJWPgAQTNmLdTsYF8-98" value="Eunica Backend" style="text;spacingTop=-5;align=center;movable=1;resizable=1;rotatable=1;deletable=1;editable=1;locked=0;connectable=1;" vertex="1" parent="1">
          <mxGeometry x="84" y="706" width="341" height="20" as="geometry" />
        </mxCell>
        <mxCell id="UxZgJWPgAQTNmLdTsYF8-106" value="" style="rounded=0;whiteSpace=wrap;html=1;" vertex="1" parent="1">
          <mxGeometry x="350" y="420" width="340" height="110" as="geometry" />
        </mxCell>
        <mxCell id="UxZgJWPgAQTNmLdTsYF8-108" value="&lt;p style=&quot;margin: 0px; margin-top: 4px; text-align: center; text-decoration: underline;&quot;&gt;&lt;/p&gt;&lt;p style=&quot;margin: 0px; margin-left: 8px;&quot;&gt;THUNDERHEAD&amp;nbsp;&amp;nbsp;&lt;br&gt;&lt;br&gt;Source plugin&lt;/p&gt;" style="verticalAlign=middle;align=center;overflow=fill;fontSize=12;fontFamily=Helvetica;html=1;rounded=1;fontStyle=1;strokeWidth=3;fillColor=#E6FFCC;movable=1;resizable=1;rotatable=1;deletable=1;editable=1;locked=0;connectable=1;" vertex="1" parent="1">
          <mxGeometry x="370" y="430" width="110" height="60.5" as="geometry" />
        </mxCell>
        <mxCell id="UxZgJWPgAQTNmLdTsYF8-109" value="&lt;p style=&quot;margin: 0px; margin-top: 4px; text-align: center; text-decoration: underline;&quot;&gt;&lt;strong&gt;MESSAGE POINT&lt;/strong&gt;&lt;/p&gt;&lt;hr&gt;&lt;p style=&quot;margin: 0px; margin-left: 8px;&quot;&gt;Target plugin&lt;br&gt;&lt;br&gt;&lt;/p&gt;" style="verticalAlign=middle;align=center;overflow=fill;fontSize=12;fontFamily=Helvetica;html=1;rounded=1;fontStyle=1;strokeWidth=3;fillColor=#E6FFCC;movable=1;resizable=1;rotatable=1;deletable=1;editable=1;locked=0;connectable=1;" vertex="1" parent="1">
          <mxGeometry x="550" y="429.5" width="120" height="60.5" as="geometry" />
        </mxCell>
        <mxCell id="UxZgJWPgAQTNmLdTsYF8-110" value="Eunica Frontend" style="text;spacingTop=-5;align=center;movable=1;resizable=1;rotatable=1;deletable=1;editable=1;locked=0;connectable=1;" vertex="1" parent="1">
          <mxGeometry x="350" y="500" width="341" height="20" as="geometry" />
        </mxCell>
        <mxCell id="UxZgJWPgAQTNmLdTsYF8-111" value="Select input plugin&#xa;&#xa; in Eunica" style="text;spacingTop=-5;align=center" vertex="1" parent="1">
          <mxGeometry x="230" y="434.75" width="90" height="50" as="geometry" />
        </mxCell>
        <mxCell id="UxZgJWPgAQTNmLdTsYF8-113" value="" style="edgeStyle=none;noEdgeStyle=1;strokeColor=#990000;strokeWidth=2;exitX=0.995;exitY=0.374;exitDx=0;exitDy=0;entryX=-0.021;entryY=0.425;entryDx=0;entryDy=0;entryPerimeter=0;exitPerimeter=0;" edge="1" parent="1" target="UxZgJWPgAQTNmLdTsYF8-109">
          <mxGeometry width="100" height="100" relative="1" as="geometry">
            <mxPoint x="480" y="454.66" as="sourcePoint" />
            <mxPoint x="629" y="454.66" as="targetPoint" />
            <Array as="points" />
          </mxGeometry>
        </mxCell>
        <mxCell id="UxZgJWPgAQTNmLdTsYF8-114" value="Upload&#xa;file" style="text;spacingTop=-5;align=center" vertex="1" parent="1">
          <mxGeometry x="470" y="440" width="90" height="30" as="geometry" />
        </mxCell>
        <mxCell id="UxZgJWPgAQTNmLdTsYF8-117" value="" style="edgeStyle=none;noEdgeStyle=1;strokeColor=#990000;strokeWidth=2;entryX=0.312;entryY=0.022;entryDx=0;entryDy=0;entryPerimeter=0;movable=1;resizable=1;rotatable=1;deletable=1;editable=1;locked=0;connectable=1;" edge="1" parent="1" target="UxZgJWPgAQTNmLdTsYF8-96">
          <mxGeometry width="100" height="100" relative="1" as="geometry">
            <mxPoint x="691" y="470" as="sourcePoint" />
            <mxPoint x="740.9999999999999" y="470" as="targetPoint" />
            <Array as="points">
              <mxPoint x="720" y="470" />
              <mxPoint x="720" y="550" />
              <mxPoint x="140" y="550" />
            </Array>
          </mxGeometry>
        </mxCell>
        <mxCell id="UxZgJWPgAQTNmLdTsYF8-118" value="API 1 called for uploading the file to backend for processing and putting data in MongoDB&#xa;&#xa; API 2 is called to retrieve the data from MongoDB and MP Touchpoint XML is created and pushed to MP" style="text;spacingTop=-5;align=center" vertex="1" parent="1">
          <mxGeometry x="160" y="530" width="550" height="50" as="geometry" />
        </mxCell>
        <mxCell id="UxZgJWPgAQTNmLdTsYF8-119" value="MessagePoint&#xa;(Touchpoint)" style="whiteSpace=wrap;align=center;verticalAlign=middle;fontStyle=1;strokeWidth=3;fillColor=#FFFFCC" vertex="1" parent="1">
          <mxGeometry x="545" y="634" width="120" height="60" as="geometry" />
        </mxCell>
        <mxCell id="UxZgJWPgAQTNmLdTsYF8-120" value="" style="edgeStyle=none;noEdgeStyle=1;strokeColor=#990000;strokeWidth=2;entryX=0;entryY=0.25;entryDx=0;entryDy=0;movable=1;resizable=1;rotatable=1;deletable=1;editable=1;locked=0;connectable=1;exitX=1.019;exitY=0.567;exitDx=0;exitDy=0;exitPerimeter=0;" edge="1" parent="1" target="UxZgJWPgAQTNmLdTsYF8-119">
          <mxGeometry width="100" height="100" relative="1" as="geometry">
            <mxPoint x="430" y="648.66" as="sourcePoint" />
            <mxPoint x="481" y="648.66" as="targetPoint" />
          </mxGeometry>
        </mxCell>
        <mxCell id="UxZgJWPgAQTNmLdTsYF8-121" value="Eunica - TH to MP flow diagram" style="text;spacingTop=-5;align=center;movable=1;resizable=1;rotatable=1;deletable=1;editable=1;locked=0;connectable=1;" vertex="1" parent="1">
          <mxGeometry x="254.5" y="770" width="341" height="20" as="geometry" />
        </mxCell>
      </root>
    </mxGraphModel>
  </diagram>
</mxfile>
